<?xml version="1.0" encoding="utf-8"?>
<!DOCTYPE svg PUBLIC "-//W3C//DTD SVG 1.0//EN" "http://www.w3.org/TR/2001/REC-SVG-20010904/DTD/svg10.dtd">
<svg version="1.0" xmlns="http://www.w3.org/2000/svg" width="266px" height="253px" viewBox="0 0 266 253" preserveAspectRatio="xMidYMid meet">
 <g fill="#73bb4b">
  <path d="M19 204.5 l0 -2.5 114.5 0 114.5 0 0 2.5 0 2.5 -114.5 0 -114.5 0 0 -2.5z"/>
  <path d="M17 138.1 c-0.5 -1.1 -1 -7.4 -1 -14.1 l0 -12.1 4.2 -4 c6.2 -5.7 29 -22.7 37.8 -28 32.3 -19.6 63.1 -32.3 101.5 -42 16.2 -4.1 42.2 -8.9 48.3 -8.9 3.1 0 3.3 0.2 3 3.1 -0.3 2.8 -0.8 3.2 -9 5.9 -4.7 1.6 -14.2 5.6 -21 8.9 -39.8 19.2 -69.7 45.5 -92.6 81.6 l-7 11 -31.5 0.3 c-30.5 0.2 -31.7 0.2 -32.7 -1.7z"/>
  <path d="M93.8 138.9 c-1 -0.5 -1.8 -1.5 -1.8 -2.1 0 -0.6 2.3 -4.5 5.1 -8.7 29.6 -43.8 74 -75 127.7 -89.7 15.1 -4.2 16.2 -4.2 16.2 -0.8 0 1.9 -2.3 5 -8.1 11.2 -18.8 20.1 -35.1 45.7 -44.8 70.4 -2.3 5.9 -4.4 12.2 -4.8 14 -1.3 7.2 1.1 6.8 -45.7 6.8 -26.7 0 -42.7 -0.4 -43.8 -1.1z"/>
  <path d="M191.2 138.8 c-1.7 -1.7 -1.5 -2.8 1.4 -11.5 8.2 -24 24.6 -50.6 45.5 -73.9 7.5 -8.3 9.6 -9.6 11.5 -6.9 1.9 2.6 2.1 90.4 0.2 92.3 -1.7 1.7 -56.9 1.7 -58.6 0z"/>
  <path d="M17.5 95.3 c-1.4 -1.3 -1.5 -5.4 -1.3 -32 0.3 -35.4 -0.7 -32.4 12.6 -36.7 23.3 -7.5 72.1 -11.5 141.3 -11.6 39.6 0 41.6 0.2 40.8 4.5 -0.4 1.6 -1.9 2.1 -9.4 3.1 -12.1 1.7 -42.4 7.9 -50.5 10.4 -3.6 1.1 -10.5 3.2 -15.5 4.6 -4.9 1.4 -12.1 3.8 -16 5.3 -3.8 1.6 -9.7 3.8 -13 5.1 -7.3 2.8 -39.5 18.5 -48.5 23.6 -8.4 4.8 -20.8 13 -29 19.1 -8.1 6.1 -9.5 6.6 -11.5 4.6z"/>
 </g>
 <g fill="#0890fc">
  <path d="M19 238 c0 -2 0.7 -2 114.5 -2 113.8 0 114.5 0 114.5 2 0 2 -0.7 2 -114.5 2 -113.8 0 -114.5 0 -114.5 -2z"/>
  <path d="M17 138.1 c-0.5 -1.1 -1 -7.4 -1 -14.1 l0 -12.1 4.2 -4 c6.2 -5.7 29 -22.7 37.8 -28 32.8 -19.9 63.7 -32.6 103 -42.3 19.4 -4.9 42.9 -8.9 48.7 -8.4 3.2 0.3 3.8 0.7 3.8 2.7 0 2 -1.1 2.7 -10 5.6 -5.5 1.8 -15.6 6 -22.5 9.3 -40 19.3 -69.8 45.6 -92.8 81.7 l-7 11 -31.5 0.3 c-30.5 0.2 -31.7 0.2 -32.7 -1.7z m65 -5.3 c1.3 -2.4 4.6 -7.7 7.4 -11.8 24.9 -37.4 60.4 -65.3 106.6 -83.9 13.7 -5.6 13.6 -5.8 -0.8 -3.5 -64.4 10.2 -123.9 35.8 -167.9 72.1 l-8.2 6.8 -0.1 12.3 0 12.2 30.3 0 30.3 0 2.4 -4.2z"/>
  <path d="M93.8 138.9 c-1 -0.5 -1.8 -1.5 -1.8 -2.1 0 -0.6 2.3 -4.5 5.1 -8.7 29.6 -43.8 74 -75 127.8 -89.8 20.1 -5.5 21.5 -3.8 8.6 10 -14.4 15.2 -25 30.1 -35.8 50.2 -5.6 10.4 -13.3 29 -14.4 34.7 -1.3 7.2 1.1 6.8 -45.7 6.8 -26.7 0 -42.7 -0.4 -43.8 -1.1z m88.1 -11.6 c9.1 -28.2 24.5 -53.2 51.1 -83.4 3.6 -4.1 4.8 -6 3.5 -5.6 -1.1 0.3 -4.8 1.3 -8.1 2.1 -18.9 4.8 -43.8 15.3 -62.2 26.3 -26.9 16 -52 40.1 -67.5 64.6 l-3.7 5.7 41.9 0 41.9 0 3.1 -9.7z"/>
  <path d="M191.2 138.8 c-1.7 -1.7 -1.5 -2.8 1.4 -11.5 8.2 -24 24.6 -50.6 45.5 -73.9 7.5 -8.3 9.6 -9.6 11.5 -6.9 1.9 2.6 2.1 90.4 0.2 92.3 -1.7 1.7 -56.9 1.7 -58.6 0z m56.8 -46.5 l0 -44.6 -2.6 2.4 c-10.1 9.3 -29.6 35.8 -38.2 51.9 -4.9 9.3 -12.2 26.6 -13.6 32.3 l-0.6 2.7 27.5 0 27.5 0 0 -44.7z"/>
  <path d="M17.5 95.3 c-1.4 -1.3 -1.5 -5.4 -1.3 -32 0.3 -35.4 -0.7 -32.4 12.6 -36.7 23.3 -7.5 72.1 -11.5 141.3 -11.6 39.6 0 41.6 0.2 40.8 4.5 -0.4 1.6 -1.9 2.1 -9.4 3.1 -12.1 1.7 -42.4 7.9 -50.5 10.4 -3.6 1.1 -10.5 3.2 -15.5 4.6 -4.9 1.4 -12.1 3.8 -16 5.3 -3.8 1.6 -9.7 3.8 -13 5.1 -7.3 2.8 -39.5 18.5 -48.5 23.6 -8.4 4.8 -20.8 13 -29 19.1 -8.1 6.1 -9.5 6.6 -11.5 4.6z m20.5 -14.6 c44.3 -29.5 96.9 -49.9 153.5 -59.6 l17 -2.9 -38 -0.1 c-67.6 -0.2 -116.3 3.8 -140.5 11.5 -4.3 1.3 -8.6 3.2 -9.5 4 -1.3 1.3 -1.5 5.8 -1.5 31.1 l0 29.5 4.8 -3.6 c2.6 -2 9 -6.5 14.2 -9.9z"/>
 </g>
 <g fill="#ae6802">
  <path d="M19 221.5 l0 -2.5 114.5 0 114.5 0 0 2.5 0 2.5 -114.5 0 -114.5 0 0 -2.5z"/>
  <path d="M20 170 c0 -13.2 0.3 -24 0.8 -23.9 0.4 0 9.5 6.7 20.2 14.9 l19.5 14.8 0.3 -15.4 0.3 -15.4 4.4 0 4.5 0 0 24.6 0 24.5 -20.5 -15.6 -20.5 -15.5 0 15.5 0 15.5 -4.5 0 -4.5 0 0 -24z"/>
  <path d="M77 169.5 l0 -24.5 4.5 0 4.5 0 0 24.5 0 24.5 -4.5 0 -4.5 0 0 -24.5z"/>
  <path d="M102.5 192.6 c-3.7 -1.6 -7 -5.2 -8.4 -8.9 -0.6 -1.6 -1.1 -10.5 -1.1 -20.8 l0 -17.9 4.5 0 4.5 0 0 18 c0 23.3 -1.1 22 18 22 l14 0 0 4.5 0 4.5 -14.2 0 c-9.7 -0.1 -15.3 -0.5 -17.3 -1.4z"/>
  <path d="M148.6 175.3 c10.5 -20.4 15.3 -29.3 15.9 -29.3 0.2 0 5.2 9.3 11.1 20.8 5.8 11.4 11.6 22.2 12.6 24 l2 3.3 -5.3 -0.3 c-5.9 -0.3 -4.5 1.5 -15.1 -19.2 -6 -11.6 -4.8 -12.2 -14.4 6.7 l-6.5 12.7 -5 0 -5 0 9.7 -18.7z"/>
  <path d="M194 169.5 l0 -24.6 12 9.1 c6.5 4.9 12.4 9 13 9 0.6 0 6.5 -4.1 13 -9 l12 -9.1 0 24.6 0 24.5 -4.5 0 -4.4 0 -0.3 -15.4 -0.3 -15.5 -7.8 5.9 -7.8 5.9 -7.7 -6 -7.7 -5.9 -0.3 15.5 -0.3 15.5 -4.4 0 -4.5 0 0 -24.5z"/>
 </g>
</svg>