<svg width="131" height="37" viewBox="0 0 131 37" fill="none" xmlns="http://www.w3.org/2000/svg">
<path d="M15.6853 0C11.8643 0 8.3247 1.53067 5.96733 4.19378L5.77733 4.41156L5.91103 4.65422C7.75471 7.98311 11.4984 10.0489 15.6853 10.0489C19.5979 10.0489 23.1234 8.23822 25.0797 5.28267C26.3041 6.88178 27.0219 8.81689 27.0219 10.8951V24.0987C27.0219 24.8267 26.9304 25.5298 26.7615 26.2142C25.4526 24.864 23.8693 23.7627 22.089 22.9973V18.2062L15.6783 14.9147L9.27469 18.2062V22.9973C7.50138 23.7689 5.91103 24.864 4.60216 26.2204C4.43327 25.536 4.34179 24.8329 4.34179 24.1049V21.6098L7.69842 18.9342L7.03694 18.2871L4.34179 20.44V17.6773L6.85398 15.7422L6.20658 15.0827L4.34179 16.52V14.4729L6.14325 13.0853L5.49585 12.4258L4.34179 13.3093V10.6213H3.35662V13.3093L2.20256 12.4196L1.55516 13.0791L3.35662 14.4667V16.5138L1.49183 15.0764L0.844433 15.736L3.35662 17.6711V20.44L0.661473 18.2871L0 18.9342L3.35662 21.6098V24.1049C3.35662 30.1093 8.88062 35 15.6783 35C22.476 35 28 30.1156 28 24.1049V10.9013C28.007 4.88445 22.483 0 15.6853 0ZM21.4838 2.296C20.6042 4.43644 18.282 5.90489 15.6853 5.90489C13.0887 5.90489 10.7665 4.424 9.88691 2.28356C10.668 1.87289 11.5054 1.54933 12.378 1.31911C12.8072 2.58844 14.1443 3.49689 15.6924 3.49689C17.2405 3.49689 18.5705 2.58844 18.9997 1.31911C19.8794 1.55556 20.7097 1.87911 21.4838 2.28978V2.296ZM18.0498 1.10133C17.7261 1.99733 16.7831 2.632 15.6853 2.632C14.5876 2.632 13.6446 1.99733 13.3209 1.10133C14.088 0.958222 14.8761 0.877333 15.6853 0.877333C16.4946 0.877333 17.2827 0.958222 18.0498 1.10756V1.10133ZM15.6853 9.184C11.9839 9.184 8.66248 7.40444 6.93843 4.51733C7.56471 3.85156 8.27544 3.27289 9.04951 2.78133C10.1262 5.15822 12.7509 6.776 15.6853 6.776C18.6198 6.776 21.2375 5.15822 22.3212 2.78756C23.1023 3.29156 23.82 3.864 24.4323 4.52356C22.7082 7.40444 19.3868 9.184 15.6853 9.184ZM10.2669 18.704L15.6853 15.9164L21.1108 18.704V22.6178C19.4009 22.008 17.5642 21.6658 15.6924 21.6658C13.8206 21.6658 11.9769 22.008 10.2669 22.6178V18.704ZM15.6853 22.5369C19.8794 22.5369 23.8763 24.2916 26.4448 27.2347C26.1141 28.1182 25.6567 28.952 25.0726 29.7111C23.1375 26.7929 19.5346 24.9449 15.6853 24.9449C11.8361 24.9449 8.23322 26.7929 6.29806 29.7111C5.714 28.952 5.2566 28.1182 4.92586 27.2347C7.49434 24.2916 11.4913 22.5369 15.6853 22.5369ZM9.89394 32.6978C10.7736 30.5636 13.0958 29.0889 15.6853 29.0889C18.2749 29.0889 20.5971 30.5636 21.4767 32.6978C20.7027 33.1084 19.8723 33.4444 18.9927 33.6809C18.5635 32.4053 17.2264 31.4907 15.6783 31.4907C14.1302 31.4907 12.7932 32.4053 12.3639 33.6809C11.4843 33.4444 10.6539 33.1022 9.87987 32.6978H9.89394ZM13.328 33.8987C13.6446 33.0027 14.5946 32.368 15.6924 32.368C16.7901 32.368 17.7331 33.0027 18.0568 33.8987C17.2968 34.0418 16.5016 34.1227 15.6924 34.1227C14.8831 34.1227 14.095 34.0418 13.328 33.8987ZM22.3212 32.2124C21.2375 29.8418 18.6198 28.2178 15.6853 28.2178C12.7509 28.2178 10.1332 29.8356 9.04951 32.2062C8.27544 31.7084 7.56471 31.136 6.9525 30.4827C8.65544 27.6391 12.0402 25.8098 15.6853 25.8098C19.3305 25.8098 22.7082 27.6391 24.4182 30.4827C23.806 31.136 23.0952 31.7084 22.3212 32.2062V32.2124Z" fill="#53389E"/>
<path d="M26 13.5C26 12.1202 24.8798 11 23.5 11C22.1202 11 21 12.1202 21 13.5C21 14.8798 22.1202 16 23.5 16C24.8798 16 26 14.8798 26 13.5ZM22.0386 13.5C22.0386 12.6988 22.6914 12.0386 23.5 12.0386C24.3086 12.0386 24.9614 12.6914 24.9614 13.5C24.9614 14.3086 24.3086 14.9614 23.5 14.9614C22.6914 14.9614 22.0386 14.3086 22.0386 13.5Z" fill="#53389E"/>
<path d="M33.1483 27.7818H33.7332L34.9031 29.7509H34.9526L36.1224 27.7818H36.7074L35.1832 30.2616V32H34.6724V30.2616L33.1483 27.7818ZM40.7289 29.8909C40.7289 30.3358 40.6485 30.7203 40.4879 31.0443C40.3272 31.3684 40.1069 31.6183 39.8267 31.794C39.5466 31.9698 39.2267 32.0577 38.8669 32.0577C38.5072 32.0577 38.1873 31.9698 37.9071 31.794C37.627 31.6183 37.4066 31.3684 37.246 31.0443C37.0853 30.7203 37.005 30.3358 37.005 29.8909C37.005 29.446 37.0853 29.0616 37.246 28.7375C37.4066 28.4134 37.627 28.1635 37.9071 27.9878C38.1873 27.812 38.5072 27.7241 38.8669 27.7241C39.2267 27.7241 39.5466 27.812 39.8267 27.9878C40.1069 28.1635 40.3272 28.4134 40.4879 28.7375C40.6485 29.0616 40.7289 29.446 40.7289 29.8909ZM40.2346 29.8909C40.2346 29.5257 40.1734 29.2174 40.0512 28.9661C39.9304 28.7148 39.7663 28.5247 39.559 28.3956C39.353 28.2665 39.1223 28.202 38.8669 28.202C38.6115 28.202 38.3802 28.2665 38.1728 28.3956C37.9669 28.5247 37.8028 28.7148 37.6806 28.9661C37.5597 29.2174 37.4993 29.5257 37.4993 29.8909C37.4993 30.2562 37.5597 30.5644 37.6806 30.8157C37.8028 31.067 37.9669 31.2571 38.1728 31.3862C38.3802 31.5153 38.6115 31.5798 38.8669 31.5798C39.1223 31.5798 39.353 31.5153 39.559 31.3862C39.7663 31.2571 39.9304 31.067 40.0512 30.8157C40.1734 30.5644 40.2346 30.2562 40.2346 29.8909ZM44.3559 27.7818H44.8667V30.5747C44.8667 30.8631 44.7988 31.1205 44.6628 31.3471C44.5283 31.5723 44.3381 31.7501 44.0923 31.8805C43.8465 32.0096 43.5582 32.0741 43.2272 32.0741C42.8963 32.0741 42.608 32.0096 42.3622 31.8805C42.1164 31.7501 41.9255 31.5723 41.7896 31.3471C41.655 31.1205 41.5877 30.8631 41.5877 30.5747V27.7818H42.0985V30.5335C42.0985 30.7395 42.1439 30.9228 42.2345 31.0835C42.3251 31.2427 42.4542 31.3684 42.6217 31.4604C42.7906 31.551 42.9924 31.5963 43.2272 31.5963C43.462 31.5963 43.6639 31.551 43.8328 31.4604C44.0017 31.3684 44.1307 31.2427 44.22 31.0835C44.3106 30.9228 44.3559 30.7395 44.3559 30.5335V27.7818ZM45.8868 32V27.7818H47.3121C47.6416 27.7818 47.9121 27.8381 48.1236 27.9507C48.335 28.0619 48.4916 28.215 48.5932 28.41C48.6948 28.605 48.7456 28.8268 48.7456 29.0753C48.7456 29.3238 48.6948 29.5442 48.5932 29.7364C48.4916 29.9287 48.3357 30.0797 48.1256 30.1896C47.9155 30.298 47.6471 30.3523 47.3203 30.3523H46.1669V29.8909H47.3038C47.529 29.8909 47.7103 29.858 47.8476 29.792C47.9863 29.7261 48.0865 29.6328 48.1483 29.5119C48.2114 29.3897 48.243 29.2442 48.243 29.0753C48.243 28.9064 48.2114 28.7588 48.1483 28.6325C48.0851 28.5061 47.9842 28.4086 47.8455 28.34C47.7068 28.27 47.5235 28.2349 47.2956 28.2349H46.3976V32H45.8868ZM47.8723 30.1051L48.9104 32H48.3172L47.2956 30.1051H47.8723ZM54.7871 29.8909C54.7871 30.3358 54.7067 30.7203 54.5461 31.0443C54.3854 31.3684 54.1651 31.6183 53.8849 31.794C53.6048 31.9698 53.2849 32.0577 52.9251 32.0577C52.5654 32.0577 52.2455 31.9698 51.9653 31.794C51.6852 31.6183 51.4648 31.3684 51.3042 31.0443C51.1435 30.7203 51.0632 30.3358 51.0632 29.8909C51.0632 29.446 51.1435 29.0616 51.3042 28.7375C51.4648 28.4134 51.6852 28.1635 51.9653 27.9878C52.2455 27.812 52.5654 27.7241 52.9251 27.7241C53.2849 27.7241 53.6048 27.812 53.8849 27.9878C54.1651 28.1635 54.3854 28.4134 54.5461 28.7375C54.7067 29.0616 54.7871 29.446 54.7871 29.8909ZM54.2928 29.8909C54.2928 29.5257 54.2317 29.2174 54.1094 28.9661C53.9886 28.7148 53.8245 28.5247 53.6172 28.3956C53.4112 28.2665 53.1805 28.202 52.9251 28.202C52.6697 28.202 52.4384 28.2665 52.231 28.3956C52.0251 28.5247 51.861 28.7148 51.7388 28.9661C51.6179 29.2174 51.5575 29.5257 51.5575 29.8909C51.5575 30.2562 51.6179 30.5644 51.7388 30.8157C51.861 31.067 52.0251 31.2571 52.231 31.3862C52.4384 31.5153 52.6697 31.5798 52.9251 31.5798C53.1805 31.5798 53.4112 31.5153 53.6172 31.3862C53.8245 31.2571 53.9886 31.067 54.1094 30.8157C54.2317 30.5644 54.2928 30.2562 54.2928 29.8909ZM56.4121 32L55.2587 27.7818H55.7778L56.6593 31.2173H56.7005L57.5985 27.7818H58.1752L59.0732 31.2173H59.1144L59.996 27.7818H60.515L59.3616 32H58.8343L57.9033 28.6386H57.8704L56.9394 32H56.4121ZM64.4963 27.7818V32H64.002L61.7034 28.6881H61.6622V32H61.1514V27.7818H61.6457L63.9526 31.102H63.9938V27.7818H64.4963ZM65.5184 32V27.7818H68.0642V28.2349H66.0292V29.6602H67.9323V30.1134H66.0292V31.5469H68.0971V32H65.5184ZM68.9848 32V27.7818H70.4101C70.7397 27.7818 71.0102 27.8381 71.2216 27.9507C71.4331 28.0619 71.5896 28.215 71.6912 28.41C71.7928 28.605 71.8436 28.8268 71.8436 29.0753C71.8436 29.3238 71.7928 29.5442 71.6912 29.7364C71.5896 29.9287 71.4338 30.0797 71.2237 30.1896C71.0136 30.298 70.7451 30.3523 70.4183 30.3523H69.2649V29.8909H70.4019C70.6271 29.8909 70.8083 29.858 70.9456 29.792C71.0843 29.7261 71.1845 29.6328 71.2463 29.5119C71.3095 29.3897 71.3411 29.2442 71.3411 29.0753C71.3411 28.9064 71.3095 28.7588 71.2463 28.6325C71.1832 28.5061 71.0822 28.4086 70.9436 28.34C70.8049 28.27 70.6216 28.2349 70.3936 28.2349H69.4956V32H68.9848ZM70.9703 30.1051L72.0084 32H71.4152L70.3936 30.1051H70.9703ZM75.0016 28.8364C74.9769 28.6277 74.8766 28.4656 74.7009 28.3503C74.5251 28.2349 74.3096 28.1773 74.0542 28.1773C73.8674 28.1773 73.704 28.2075 73.564 28.2679C73.4253 28.3283 73.3168 28.4114 73.2385 28.5171C73.1616 28.6228 73.1232 28.743 73.1232 28.8776C73.1232 28.9902 73.15 29.087 73.2035 29.168C73.2584 29.2476 73.3285 29.3142 73.4136 29.3678C73.4987 29.4199 73.588 29.4632 73.6814 29.4975C73.7747 29.5305 73.8605 29.5572 73.9388 29.5778L74.3672 29.6932C74.4771 29.722 74.5993 29.7618 74.7338 29.8126C74.8698 29.8634 74.9995 29.9328 75.1231 30.0207C75.2481 30.1072 75.3511 30.2184 75.4321 30.3543C75.5131 30.4903 75.5536 30.6571 75.5536 30.8548C75.5536 31.0828 75.4939 31.2887 75.3744 31.4727C75.2563 31.6567 75.0833 31.803 74.8554 31.9114C74.6288 32.0199 74.3535 32.0741 74.0294 32.0741C73.7274 32.0741 73.4658 32.0254 73.2447 31.9279C73.025 31.8304 72.852 31.6945 72.7257 31.5201C72.6007 31.3457 72.53 31.1432 72.5135 30.9125H73.0408C73.0545 31.0718 73.1081 31.2036 73.2015 31.308C73.2962 31.4109 73.4157 31.4878 73.5598 31.5386C73.7054 31.5881 73.8619 31.6128 74.0294 31.6128C74.2244 31.6128 74.3995 31.5812 74.5547 31.518C74.7098 31.4535 74.8327 31.3643 74.9233 31.2503C75.014 31.1349 75.0593 31.0004 75.0593 30.8466C75.0593 30.7065 75.0201 30.5926 74.9419 30.5047C74.8636 30.4168 74.7606 30.3454 74.6329 30.2905C74.5052 30.2356 74.3672 30.1875 74.2189 30.1463L73.6999 29.998C73.3704 29.9033 73.1095 29.768 72.9172 29.5923C72.725 29.4165 72.6289 29.1865 72.6289 28.9023C72.6289 28.6661 72.6927 28.4601 72.8204 28.2844C72.9495 28.1072 73.1225 27.9699 73.3395 27.8724C73.5578 27.7736 73.8015 27.7241 74.0706 27.7241C74.3425 27.7241 74.5842 27.7729 74.7956 27.8704C75.0071 27.9665 75.1746 28.0983 75.2982 28.2658C75.4231 28.4334 75.4891 28.6235 75.4959 28.8364H75.0016ZM76.3934 32V27.7818H76.9042V29.6602H79.1534V27.7818H79.6642V32H79.1534V30.1134H76.9042V32H76.3934ZM81.1976 27.7818V32H80.6868V27.7818H81.1976ZM82.2217 32V27.7818H83.647C83.9779 27.7818 84.2484 27.8415 84.4585 27.961C84.67 28.0791 84.8265 28.2391 84.9281 28.4409C85.0297 28.6428 85.0805 28.8679 85.0805 29.1165C85.0805 29.365 85.0297 29.5909 84.9281 29.7941C84.8279 29.9973 84.6727 30.1594 84.4626 30.2802C84.2526 30.3996 83.9834 30.4594 83.6553 30.4594H82.6337V30.0062H83.6388C83.8653 30.0062 84.0473 29.9671 84.1846 29.8888C84.3219 29.8106 84.4214 29.7049 84.4832 29.5717C84.5464 29.4371 84.578 29.2854 84.578 29.1165C84.578 28.9476 84.5464 28.7965 84.4832 28.6634C84.4214 28.5302 84.3212 28.4258 84.1825 28.3503C84.0438 28.2734 83.8598 28.2349 83.6305 28.2349H82.7325V32H82.2217ZM89.8414 28.8364C89.8167 28.6277 89.7165 28.4656 89.5407 28.3503C89.365 28.2349 89.1494 28.1773 88.894 28.1773C88.7073 28.1773 88.5439 28.2075 88.4038 28.2679C88.2651 28.3283 88.1566 28.4114 88.0784 28.5171C88.0015 28.6228 87.963 28.743 87.963 28.8776C87.963 28.9902 87.9898 29.087 88.0434 29.168C88.0983 29.2476 88.1683 29.3142 88.2534 29.3678C88.3386 29.4199 88.4278 29.4632 88.5212 29.4975C88.6146 29.5305 88.7004 29.5572 88.7787 29.5778L89.2071 29.6932C89.3169 29.722 89.4391 29.7618 89.5737 29.8126C89.7096 29.8634 89.8394 29.9328 89.963 30.0207C90.0879 30.1072 90.1909 30.2184 90.2719 30.3543C90.3529 30.4903 90.3934 30.6571 90.3934 30.8548C90.3934 31.0828 90.3337 31.2887 90.2142 31.4727C90.0962 31.6567 89.9231 31.803 89.6952 31.9114C89.4686 32.0199 89.1933 32.0741 88.8693 32.0741C88.5672 32.0741 88.3056 32.0254 88.0846 31.9279C87.8649 31.8304 87.6918 31.6945 87.5655 31.5201C87.4406 31.3457 87.3699 31.1432 87.3534 30.9125H87.8806C87.8944 31.0718 87.9479 31.2036 88.0413 31.308C88.136 31.4109 88.2555 31.4878 88.3997 31.5386C88.5452 31.5881 88.7018 31.6128 88.8693 31.6128C89.0643 31.6128 89.2393 31.5812 89.3945 31.518C89.5497 31.4535 89.6726 31.3643 89.7632 31.2503C89.8538 31.1349 89.8991 31.0004 89.8991 30.8466C89.8991 30.7065 89.86 30.5926 89.7817 30.5047C89.7034 30.4168 89.6005 30.3454 89.4728 30.2905C89.3451 30.2356 89.2071 30.1875 89.0588 30.1463L88.5397 29.998C88.2102 29.9033 87.9493 29.768 87.7571 29.5923C87.5648 29.4165 87.4687 29.1865 87.4687 28.9023C87.4687 28.6661 87.5326 28.4601 87.6603 28.2844C87.7893 28.1072 87.9623 27.9699 88.1793 27.8724C88.3976 27.7736 88.6413 27.7241 88.9105 27.7241C89.1824 27.7241 89.424 27.7729 89.6355 27.8704C89.8469 27.9665 90.0145 28.0983 90.138 28.2658C90.263 28.4334 90.3289 28.6235 90.3358 28.8364H89.8414ZM91.2333 32V27.7818H93.779V28.2349H91.7441V29.6602H93.6472V30.1134H91.7441V31.5469H93.812V32H91.2333ZM98.094 29.1H97.5832C97.553 28.9531 97.5001 28.824 97.4246 28.7128C97.3504 28.6016 97.2598 28.5082 97.1527 28.4327C97.047 28.3558 96.9296 28.2981 96.8005 28.2597C96.6714 28.2212 96.5369 28.202 96.3968 28.202C96.1414 28.202 95.9101 28.2665 95.7027 28.3956C95.4968 28.5247 95.3327 28.7148 95.2105 28.9661C95.0896 29.2174 95.0292 29.5257 95.0292 29.8909C95.0292 30.2562 95.0896 30.5644 95.2105 30.8157C95.3327 31.067 95.4968 31.2571 95.7027 31.3862C95.9101 31.5153 96.1414 31.5798 96.3968 31.5798C96.5369 31.5798 96.6714 31.5606 96.8005 31.5222C96.9296 31.4837 97.047 31.4267 97.1527 31.3512C97.2598 31.2743 97.3504 31.1803 97.4246 31.069C97.5001 30.9564 97.553 30.8274 97.5832 30.6818H98.094C98.0555 30.8974 97.9855 31.0903 97.8839 31.2606C97.7823 31.4308 97.656 31.5757 97.5049 31.6952C97.3539 31.8133 97.1843 31.9032 96.9962 31.965C96.8094 32.0268 96.6097 32.0577 96.3968 32.0577C96.0371 32.0577 95.7171 31.9698 95.437 31.794C95.1569 31.6183 94.9365 31.3684 94.7759 31.0443C94.6152 30.7203 94.5349 30.3358 94.5349 29.8909C94.5349 29.446 94.6152 29.0616 94.7759 28.7375C94.9365 28.4134 95.1569 28.1635 95.437 27.9878C95.7171 27.812 96.0371 27.7241 96.3968 27.7241C96.6097 27.7241 96.8094 27.755 96.9962 27.8168C97.1843 27.8786 97.3539 27.9692 97.5049 28.0887C97.656 28.2068 97.7823 28.351 97.8839 28.5212C97.9855 28.6901 98.0555 28.883 98.094 29.1ZM101.688 27.7818H102.198V30.5747C102.198 30.8631 102.13 31.1205 101.994 31.3471C101.86 31.5723 101.67 31.7501 101.424 31.8805C101.178 32.0096 100.89 32.0741 100.559 32.0741C100.228 32.0741 99.9396 32.0096 99.6938 31.8805C99.448 31.7501 99.2572 31.5723 99.1212 31.3471C98.9867 31.1205 98.9194 30.8631 98.9194 30.5747V27.7818H99.4302V30.5335C99.4302 30.7395 99.4755 30.9228 99.5661 31.0835C99.6567 31.2427 99.7858 31.3684 99.9533 31.4604C100.122 31.551 100.324 31.5963 100.559 31.5963C100.794 31.5963 100.996 31.551 101.164 31.4604C101.333 31.3684 101.462 31.2427 101.552 31.0835C101.642 30.9228 101.688 30.7395 101.688 30.5335V27.7818ZM103.218 32V27.7818H104.644C104.973 27.7818 105.244 27.8381 105.455 27.9507C105.667 28.0619 105.823 28.215 105.925 28.41C106.026 28.605 106.077 28.8268 106.077 29.0753C106.077 29.3238 106.026 29.5442 105.925 29.7364C105.823 29.9287 105.667 30.0797 105.457 30.1896C105.247 30.298 104.979 30.3523 104.652 30.3523H103.499V29.8909H104.635C104.861 29.8909 105.042 29.858 105.179 29.792C105.318 29.7261 105.418 29.6328 105.48 29.5119C105.543 29.3897 105.575 29.2442 105.575 29.0753C105.575 28.9064 105.543 28.7588 105.48 28.6325C105.417 28.5061 105.316 28.4086 105.177 28.34C105.038 28.27 104.855 28.2349 104.627 28.2349H103.729V32H103.218ZM105.204 30.1051L106.242 32H105.649L104.627 30.1051H105.204ZM106.928 32V27.7818H109.474V28.2349H107.439V29.6602H109.342V30.1134H107.439V31.5469H109.507V32H106.928ZM111.696 32H110.395V27.7818H111.754C112.163 27.7818 112.513 27.8663 112.805 28.0352C113.096 28.2027 113.319 28.4437 113.474 28.7581C113.629 29.0712 113.707 29.446 113.707 29.8827C113.707 30.3221 113.628 30.7004 113.472 31.0175C113.315 31.3334 113.087 31.5764 112.788 31.7467C112.489 31.9156 112.125 32 111.696 32ZM110.906 31.5469H111.664C112.012 31.5469 112.301 31.4796 112.531 31.345C112.76 31.2105 112.931 31.0189 113.044 30.7704C113.156 30.5219 113.212 30.2259 113.212 29.8827C113.212 29.5421 113.157 29.249 113.046 29.0032C112.934 28.756 112.768 28.5665 112.547 28.4347C112.326 28.3015 112.051 28.2349 111.721 28.2349H110.906V31.5469Z" fill="#53389E"/>
<path d="M48.625 2.5L51.75 2.525V20.025L48.625 17.625L37.375 8.95V20.025H34.25V2.575L37.375 4.975L48.625 13.65V2.5ZM57.3701 20H54.2451V2.5H57.3701V20ZM65.1104 16.875L74.2854 16.9V20.025H65.4104C64.5354 20.025 63.7104 19.825 62.9604 19.45C61.8604 18.9 60.9604 18 60.4354 16.9C60.0604 16.15 59.8604 15.325 59.8604 14.45V2.525H62.9854V14.75C63.1354 15.85 64.0104 16.725 65.1104 16.875ZM92.0293 16.875L93.6293 20H90.1293L88.5293 16.875L84.7043 9.375L80.8793 16.875L79.2793 20H75.7793L77.3793 16.875L84.7043 2.5L92.0293 16.875ZM109.514 4.9L112.639 2.5V20H109.514V8.85L106.439 11.2L103.889 13.175L101.339 11.2L98.2637 8.85V20H95.1387V2.5L98.2637 4.9L103.889 9.225L109.514 4.9Z" fill="#53389E"/>
</svg>
